<svg class="vector fh" width="300px" height="300px" xmlns="http://www.w3.org/2000/svg" baseProfile="full" version="1.1" style="width: 300px; height: 300px; stroke: rgb(0, 0, 0); stroke-width: 25; stroke-linecap: round; fill: none;"><g transform="translate(0,0)"><path d="M150,60 A90,90 0 0,1 240,150 A-90,90 0 0,1 150,240  M0,60 L150,60  M0,240 L150,240  M0,90 L150,90  M0,210 L150,210  M150,90 A60,60 0 0,1 210,150 A-60,60 0 0,1 150,210  M0,120 L150,120  A30,30 0 0,1 180,150 A-30,30 0 0,1 150,180  M0,180 L150,180  "></path></g><g><path d="M0,0" transform=""></path></g></svg>